<svg width="42" height="42" viewBox="0 0 42 42" fill="none" xmlns="http://www.w3.org/2000/svg">
<path d="M21 12.25C18.6794 12.25 16.4538 13.1719 14.8128 14.8128C13.1719 16.4538 12.25 18.6794 12.25 21C12.25 23.3206 13.1719 25.5462 14.8128 27.1872C16.4538 28.8281 18.6794 29.75 21 29.75C23.3206 29.75 25.5462 28.8281 27.1872 27.1872C28.8281 25.5462 29.75 23.3206 29.75 21C29.75 18.6794 28.8281 16.4538 27.1872 14.8128C25.5462 13.1719 23.3206 12.25 21 12.25Z" fill="#FFD966"/>
<path fill-rule="evenodd" clip-rule="evenodd" d="M21 1.75C21.4641 1.75 21.9092 1.93437 22.2374 2.26256C22.5656 2.59075 22.75 3.03587 22.75 3.5V5.25C22.75 5.71413 22.5656 6.15925 22.2374 6.48744C21.9092 6.81563 21.4641 7 21 7C20.5359 7 20.0908 6.81563 19.7626 6.48744C19.4344 6.15925 19.25 5.71413 19.25 5.25V3.5C19.25 3.03587 19.4344 2.59075 19.7626 2.26256C20.0908 1.93437 20.5359 1.75 21 1.75ZM5.76275 5.76275C6.09092 5.43468 6.53596 5.25037 7 5.25037C7.46404 5.25037 7.90908 5.43468 8.23725 5.76275L10.8622 8.38775C11.181 8.7178 11.3574 9.15986 11.3534 9.6187C11.3494 10.0775 11.1654 10.5165 10.8409 10.8409C10.5165 11.1654 10.0775 11.3494 9.6187 11.3534C9.15986 11.3574 8.7178 11.181 8.38775 10.8622L5.76275 8.23725C5.43468 7.90908 5.25037 7.46404 5.25037 7C5.25037 6.53596 5.43468 6.09092 5.76275 5.76275ZM36.2373 5.76275C36.5653 6.09092 36.7496 6.53596 36.7496 7C36.7496 7.46404 36.5653 7.90908 36.2373 8.23725L33.6123 10.8622C33.4508 11.0294 33.2577 11.1627 33.0442 11.2544C32.8307 11.3461 32.6011 11.3944 32.3687 11.3964C32.1363 11.3985 31.9059 11.3542 31.6908 11.2662C31.4758 11.1782 31.2804 11.0483 31.1161 10.8839C30.9517 10.7196 30.8218 10.5242 30.7338 10.3092C30.6458 10.0941 30.6015 9.86366 30.6036 9.6313C30.6056 9.39893 30.6539 9.1693 30.7456 8.95579C30.8373 8.74229 30.9706 8.54918 31.1377 8.38775L33.7627 5.76275C34.0909 5.43468 34.536 5.25037 35 5.25037C35.464 5.25037 35.9091 5.43468 36.2373 5.76275ZM1.75 21C1.75 20.5359 1.93437 20.0908 2.26256 19.7626C2.59075 19.4344 3.03587 19.25 3.5 19.25H5.25C5.71413 19.25 6.15925 19.4344 6.48744 19.7626C6.81563 20.0908 7 20.5359 7 21C7 21.4641 6.81563 21.9092 6.48744 22.2374C6.15925 22.5656 5.71413 22.75 5.25 22.75H3.5C3.03587 22.75 2.59075 22.5656 2.26256 22.2374C1.93437 21.9092 1.75 21.4641 1.75 21ZM35 21C35 20.5359 35.1844 20.0908 35.5126 19.7626C35.8408 19.4344 36.2859 19.25 36.75 19.25H38.5C38.9641 19.25 39.4092 19.4344 39.7374 19.7626C40.0656 20.0908 40.25 20.5359 40.25 21C40.25 21.4641 40.0656 21.9092 39.7374 22.2374C39.4092 22.5656 38.9641 22.75 38.5 22.75H36.75C36.2859 22.75 35.8408 22.5656 35.5126 22.2374C35.1844 21.9092 35 21.4641 35 21ZM10.8622 31.1377C11.1903 31.4659 11.3746 31.911 11.3746 32.375C11.3746 32.839 11.1903 33.2841 10.8622 33.6123L8.23725 36.2373C7.9072 36.556 7.46514 36.7324 7.0063 36.7284C6.54745 36.7244 6.10853 36.5404 5.78407 36.2159C5.4596 35.8915 5.27556 35.4525 5.27157 34.9937C5.26758 34.5349 5.44397 34.0928 5.76275 33.7627L8.38775 31.1377C8.71592 30.8097 9.16096 30.6254 9.625 30.6254C10.089 30.6254 10.5341 30.8097 10.8622 31.1377ZM31.1377 31.1377C31.4659 30.8097 31.911 30.6254 32.375 30.6254C32.839 30.6254 33.2841 30.8097 33.6123 31.1377L36.2373 33.7627C36.556 34.0928 36.7324 34.5349 36.7284 34.9937C36.7244 35.4525 36.5404 35.8915 36.2159 36.2159C35.8915 36.5404 35.4525 36.7244 34.9937 36.7284C34.5349 36.7324 34.0928 36.556 33.7627 36.2373L31.1377 33.6123C30.8097 33.2841 30.6254 32.839 30.6254 32.375C30.6254 31.911 30.8097 31.4659 31.1377 31.1377ZM21 35C21.4641 35 21.9092 35.1844 22.2374 35.5126C22.5656 35.8408 22.75 36.2859 22.75 36.75V38.5C22.75 38.9641 22.5656 39.4092 22.2374 39.7374C21.9092 40.0656 21.4641 40.25 21 40.25C20.5359 40.25 20.0908 40.0656 19.7626 39.7374C19.4344 39.4092 19.25 38.9641 19.25 38.5V36.75C19.25 36.2859 19.4344 35.8408 19.7626 35.5126C20.0908 35.1844 20.5359 35 21 35Z" fill="#FFD966"/>
</svg>